<svg width="92" height="40" viewBox="0 0 92 40" fill="none" xmlns="http://www.w3.org/2000/svg">
<path d="M15.3267 5.016C17.4067 5.016 19.2147 5.31999 20.7507 5.92799C22.2867 6.50399 23.7907 7.39999 25.2627 8.61599L21.7587 12.696C19.8387 11.128 17.8227 10.344 15.7107 10.344C13.3427 10.344 11.4547 11.32 10.0467 13.272C8.67072 15.192 7.98272 18.216 7.98272 22.344C7.98272 26.376 8.67072 29.368 10.0467 31.32C11.4547 33.24 13.3587 34.2 15.7587 34.2C17.0067 34.2 18.1427 33.976 19.1667 33.528C20.1907 33.048 21.2627 32.376 22.3827 31.512L25.6467 35.592C24.4627 36.808 22.9907 37.816 21.2307 38.616C19.5027 39.384 17.5827 39.768 15.4707 39.768C12.4947 39.768 9.88672 39.096 7.64672 37.752C5.40672 36.408 3.66272 34.44 2.41472 31.848C1.16672 29.224 0.542725 26.056 0.542725 22.344C0.542725 18.728 1.18272 15.624 2.46272 13.032C3.74272 10.408 5.50272 8.42399 7.74272 7.07999C9.98273 5.70399 12.5107 5.016 15.3267 5.016Z" fill="white"/>
<path d="M48.4719 31.944C48.4719 32.936 48.6159 33.672 48.9039 34.152C49.1919 34.6 49.6719 34.936 50.3438 35.16L48.9039 39.672C47.3998 39.544 46.1679 39.192 45.2079 38.616C44.2799 38.04 43.5599 37.144 43.0479 35.928C41.3839 38.488 38.8399 39.768 35.4159 39.768C32.8879 39.768 30.8718 39.048 29.3678 37.608C27.8958 36.136 27.1598 34.232 27.1598 31.896C27.1598 29.112 28.1678 26.984 30.1838 25.512C32.1998 24.04 35.0958 23.304 38.8718 23.304H41.7999V22.056C41.7999 20.488 41.4479 19.4 40.7439 18.792C40.0399 18.184 38.8718 17.88 37.2398 17.88C35.4478 17.88 33.2078 18.328 30.5198 19.224L28.9839 14.664C32.1519 13.416 35.2878 12.792 38.3918 12.792C41.8478 12.792 44.3918 13.544 46.0238 15.048C47.6558 16.52 48.4719 18.728 48.4719 21.672V31.944ZM37.2878 34.872C39.2078 34.872 40.7119 33.928 41.7999 32.04V27.192H39.5438C35.8639 27.192 34.0238 28.568 34.0238 31.32C34.0238 32.44 34.2959 33.32 34.8399 33.96C35.4159 34.568 36.2318 34.872 37.2878 34.872Z" fill="white"/>
<path d="M62.0979 13.56V39H55.2818V13.56H62.0979ZM58.6418 0.455994C59.8578 0.455994 60.8499 0.839993 61.6179 1.60799C62.4179 2.34399 62.8178 3.28799 62.8178 4.43999C62.8178 5.59199 62.4179 6.55199 61.6179 7.31999C60.8499 8.05599 59.8578 8.42399 58.6418 8.42399C57.4258 8.42399 56.4338 8.05599 55.6658 7.31999C54.8978 6.55199 54.5139 5.59199 54.5139 4.43999C54.5139 3.28799 54.8978 2.34399 55.6658 1.60799C56.4338 0.839993 57.4258 0.455994 58.6418 0.455994Z" fill="white"/>
<path d="M79.5327 12.792C83.3407 12.792 86.3167 13.992 88.4607 16.392C90.6047 18.76 91.6767 22.056 91.6767 26.28C91.6767 28.968 91.1807 31.336 90.1887 33.384C89.2287 35.4 87.8207 36.968 85.9647 38.088C84.1407 39.208 81.9807 39.768 79.4847 39.768C75.6767 39.768 72.6847 38.584 70.5087 36.216C68.3647 33.816 67.2927 30.504 67.2927 26.28C67.2927 23.592 67.7727 21.24 68.7327 19.224C69.7247 17.176 71.1327 15.592 72.9567 14.472C74.8127 13.352 77.0047 12.792 79.5327 12.792ZM79.5327 17.88C77.8047 17.88 76.5087 18.568 75.6447 19.944C74.8127 21.288 74.3967 23.4 74.3967 26.28C74.3967 29.16 74.8127 31.288 75.6447 32.664C76.5087 34.008 77.7887 34.68 79.4847 34.68C81.1807 34.68 82.4447 34.008 83.2767 32.664C84.1407 31.288 84.5727 29.16 84.5727 26.28C84.5727 23.4 84.1567 21.288 83.3247 19.944C82.4927 18.568 81.2287 17.88 79.5327 17.88Z" fill="white"/>
</svg>
