<svg width="32" height="32" viewBox="0 0 32 32" fill="none" xmlns="http://www.w3.org/2000/svg">
<g clip-path="url(#clip0_17_11)">
<path d="M17.456 3.512C19.016 3.512 20.372 3.74 21.524 4.196C22.676 4.628 23.804 5.3 24.908 6.212L22.28 9.272C20.84 8.096 19.328 7.508 17.744 7.508C15.968 7.508 14.552 8.24 13.496 9.704C12.464 11.144 11.948 13.412 11.948 16.508C11.948 19.532 12.464 21.776 13.496 23.24C14.552 24.68 15.98 25.4 17.78 25.4C18.716 25.4 19.568 25.232 20.336 24.896C21.104 24.536 21.908 24.032 22.748 23.384L25.196 26.444C24.308 27.356 23.204 28.112 21.884 28.712C20.588 29.288 19.148 29.576 17.564 29.576C15.332 29.576 13.376 29.072 11.696 28.064C10.016 27.056 8.708 25.58 7.772 23.636C6.836 21.668 6.368 19.292 6.368 16.508C6.368 13.796 6.848 11.468 7.808 9.524C8.768 7.556 10.088 6.068 11.768 5.06C13.448 4.028 15.344 3.512 17.456 3.512Z" fill="black"/>
</g>
<defs>
<clipPath id="clip0_17_11">
<rect width="32" height="32" fill="white"/>
</clipPath>
</defs>
</svg>
