<svg width="21" height="19" viewBox="0 0 21 19" fill="none" xmlns="http://www.w3.org/2000/svg">
<path d="M10.0075 17.4167L13.8209 7.91671H15.5486L19.4673 17.4167H17.6343L16.7705 14.923H12.7254L11.7352 17.4167H10.0075ZM13.1889 13.5375H16.1806L14.7058 9.69796H14.6637L13.1889 13.5375ZM3.37094 15.0417L2.21217 13.9532L6.51015 9.91567C5.97642 9.33511 5.50237 8.75126 5.08803 8.1641C4.67368 7.57695 4.312 6.96671 4.00299 6.33337H5.83596C6.07474 6.76879 6.33809 7.18112 6.62603 7.57035C6.91397 7.95959 7.24053 8.35872 7.60572 8.76775C8.23777 8.14761 8.76449 7.50438 9.18586 6.83806C9.60723 6.17174 9.96539 5.47574 10.2604 4.75004H0.842712V3.16671H6.74191V1.58337H8.42739V3.16671H14.3266V4.75004H11.9458C11.6368 5.66046 11.226 6.55438 10.7133 7.43181C10.2007 8.30924 9.57211 9.14379 8.82769 9.93546L10.8924 11.8948L10.2604 13.498L7.58465 11.0834L3.37094 15.0417Z" fill="black"/>
</svg>
